<svg width="16" height="16" viewBox="0 0 16 16" fill="none" xmlns="http://www.w3.org/2000/svg">
<path d="M10.5 7.84424H12.1667C12.1667 5.54424 10.3 3.67757 8 3.67757V5.34424C9.38333 5.34424 10.5 6.4609 10.5 7.84424ZM13.8333 7.84424H15.5C15.5 3.70257 12.1417 0.344238 8 0.344238V2.0109C11.225 2.0109 13.8333 4.61924 13.8333 7.84424ZM14.6667 10.7609C13.625 10.7609 12.625 10.5942 11.6917 10.2859C11.6083 10.2609 11.5167 10.2442 11.4333 10.2442C11.2167 10.2442 11.0083 10.3276 10.8417 10.4859L9.00833 12.3192C6.65 11.1192 4.71667 9.19424 3.51667 6.82757L5.35 4.9859C5.58333 4.76924 5.65 4.44424 5.55833 4.15257C5.25 3.21924 5.08333 2.21924 5.08333 1.17757C5.08333 0.719238 4.70833 0.344238 4.25 0.344238H1.33333C0.875 0.344238 0.5 0.719238 0.5 1.17757C0.5 9.00257 6.84167 15.3442 14.6667 15.3442C15.125 15.3442 15.5 14.9692 15.5 14.5109V11.5942C15.5 11.1359 15.125 10.7609 14.6667 10.7609ZM2.19167 2.0109H3.44167C3.5 2.74424 3.625 3.46924 3.81667 4.1609L2.81667 5.16924C2.48333 4.1609 2.26667 3.1109 2.19167 2.0109ZM13.8333 13.6526C12.7333 13.5776 11.6667 13.3609 10.6667 13.0192L11.6667 12.0192C12.375 12.2192 13.1 12.3442 13.8333 12.3942V13.6526Z" fill="#323A4F"/>
</svg>
